<svg width="173" height="40" viewBox="0 0 173 40" fill="none" xmlns="http://www.w3.org/2000/svg">
<path d="M0.0162634 22.1419C0.178609 27.9052 4.54842 32.8635 6.71303 34.6223C5.5969 30.4622 7.22036 27.2152 7.93062 26.2006C8.64088 25.1859 9.35115 23.2581 8.94528 21.6346C8.62059 20.3358 8.80999 18.5906 8.94528 17.8804C7.11889 18.9965 7.01743 20.0111 6.61156 22.0405C6.2057 24.0698 3.87198 24.4757 2.34998 20.0111C1.13239 16.4395 2.69942 12.6156 3.54497 11.0598C0.196591 15.2199 -0.0852028 20.3155 0.0162634 22.1419Z" fill="url(#paint0_linear_104_16282)"/>
<path d="M1.92158 17.2492C2.46273 15.964 4.60438 13.2921 8.25716 12.8862C12.8231 12.3789 13.8946 18.1624 13.7931 19.6844C13.6916 21.2064 15.4166 22.5255 16.5327 21.2064C17.6488 19.8874 18.9111 16.9448 17.592 13.1906C16.273 9.43635 11.8653 8.32022 9.43007 8.32022C6.99488 8.32022 4.76263 9.23342 3.48825 11.1613C2.2067 13.1 1.71864 16.0316 1.92158 17.2492Z" fill="url(#paint1_linear_104_16282)"/>
<path d="M23.0491 6.82055C32.1405 9.0934 29.8811 15.9525 27.6151 19.098C30.0503 12.5027 20.5124 8.54548 15.9465 14.4305C12.2937 19.1385 14.2215 21.2626 15.6421 21.7361C12.801 22.1419 10.5688 20.9243 11.1776 15.5466C11.7864 10.1689 17.4685 5.90736 23.0491 6.82055Z" fill="url(#paint2_linear_104_16282)"/>
<path d="M25.8902 24.3742C31.4911 19.9909 30.5689 14.4758 29.5204 12.1759C29.9262 20.3744 21.2566 25.4227 16.7583 27.0123C19.1123 24.496 19.4302 21.8376 19.2949 20.8229C19.1934 21.6346 16.5553 23.6639 15.5407 24.1713C14.7289 24.5771 13.7819 25.2198 13.4099 25.4903C4.96789 31.903 9.6218 37.8354 13.004 40C12.6705 38.3325 12.7633 36.8782 13.1322 35.6369C13.4368 34.6123 13.9295 33.733 14.526 32.9988C15.8451 31.3754 18.889 29.8534 25.8902 24.3742Z" fill="url(#paint3_linear_104_16282)"/>
<circle cx="14.5033" cy="3.34838" r="3.34838" fill="url(#paint4_linear_104_16282)"/>
<path d="M36.0102 20C36.0102 18.6267 36.3168 17.4 36.9302 16.32C37.5568 15.2267 38.4035 14.38 39.4702 13.78C40.5502 13.1667 41.7568 12.86 43.0902 12.86C44.6502 12.86 46.0168 13.26 47.1902 14.06C48.3635 14.86 49.1835 15.9667 49.6502 17.38H46.4302C46.1102 16.7133 45.6568 16.2133 45.0702 15.88C44.4968 15.5467 43.8302 15.38 43.0702 15.38C42.2568 15.38 41.5302 15.5733 40.8902 15.96C40.2635 16.3333 39.7702 16.8667 39.4102 17.56C39.0635 18.2533 38.8902 19.0667 38.8902 20C38.8902 20.92 39.0635 21.7333 39.4102 22.44C39.7702 23.1333 40.2635 23.6733 40.8902 24.06C41.5302 24.4333 42.2568 24.62 43.0702 24.62C43.8302 24.62 44.4968 24.4533 45.0702 24.12C45.6568 23.7733 46.1102 23.2667 46.4302 22.6H49.6502C49.1835 24.0267 48.3635 25.14 47.1902 25.94C46.0302 26.7267 44.6635 27.12 43.0902 27.12C41.7568 27.12 40.5502 26.82 39.4702 26.22C38.4035 25.6067 37.5568 24.76 36.9302 23.68C36.3168 22.6 36.0102 21.3733 36.0102 20ZM51.3217 21.42C51.3217 20.3 51.5417 19.3067 51.9817 18.44C52.4351 17.5733 53.0417 16.9067 53.8017 16.44C54.5751 15.9733 55.4351 15.74 56.3817 15.74C57.2084 15.74 57.9284 15.9067 58.5417 16.24C59.1684 16.5733 59.6684 16.9933 60.0417 17.5V15.92H62.8617V27H60.0417V25.38C59.6817 25.9 59.1817 26.3333 58.5417 26.68C57.9151 27.0133 57.1884 27.18 56.3617 27.18C55.4284 27.18 54.5751 26.94 53.8017 26.46C53.0417 25.98 52.4351 25.3067 51.9817 24.44C51.5417 23.56 51.3217 22.5533 51.3217 21.42ZM60.0417 21.46C60.0417 20.78 59.9084 20.2 59.6417 19.72C59.3751 19.2267 59.0151 18.8533 58.5617 18.6C58.1084 18.3333 57.6217 18.2 57.1017 18.2C56.5817 18.2 56.1017 18.3267 55.6617 18.58C55.2217 18.8333 54.8617 19.2067 54.5817 19.7C54.3151 20.18 54.1817 20.7533 54.1817 21.42C54.1817 22.0867 54.3151 22.6733 54.5817 23.18C54.8617 23.6733 55.2217 24.0533 55.6617 24.32C56.1151 24.5867 56.5951 24.72 57.1017 24.72C57.6217 24.72 58.1084 24.5933 58.5617 24.34C59.0151 24.0733 59.3751 23.7 59.6417 23.22C59.9084 22.7267 60.0417 22.14 60.0417 21.46ZM68.3964 17.64C68.7564 17.0533 69.2231 16.5933 69.7964 16.26C70.3831 15.9267 71.0498 15.76 71.7964 15.76V18.7H71.0564C70.1764 18.7 69.5098 18.9067 69.0564 19.32C68.6164 19.7333 68.3964 20.4533 68.3964 21.48V27H65.5964V15.92H68.3964V17.64ZM83.9824 21.22C83.9824 21.62 83.9557 21.98 83.9024 22.3H75.8024C75.869 23.1 76.149 23.7267 76.6424 24.18C77.1357 24.6333 77.7424 24.86 78.4624 24.86C79.5024 24.86 80.2424 24.4133 80.6824 23.52H83.7024C83.3824 24.5867 82.769 25.4667 81.8624 26.16C80.9557 26.84 79.8424 27.18 78.5224 27.18C77.4557 27.18 76.4957 26.9467 75.6424 26.48C74.8024 26 74.1424 25.3267 73.6624 24.46C73.1957 23.5933 72.9624 22.5933 72.9624 21.46C72.9624 20.3133 73.1957 19.3067 73.6624 18.44C74.129 17.5733 74.7824 16.9067 75.6224 16.44C76.4624 15.9733 77.429 15.74 78.5224 15.74C79.5757 15.74 80.5157 15.9667 81.3424 16.42C82.1824 16.8733 82.829 17.52 83.2824 18.36C83.749 19.1867 83.9824 20.14 83.9824 21.22ZM81.0824 20.42C81.069 19.7 80.809 19.1267 80.3024 18.7C79.7957 18.26 79.1757 18.04 78.4424 18.04C77.749 18.04 77.1624 18.2533 76.6824 18.68C76.2157 19.0933 75.929 19.6733 75.8224 20.42H81.0824ZM85.3461 20C85.3461 18.6267 85.6528 17.4 86.2661 16.32C86.8928 15.2267 87.7395 14.38 88.8061 13.78C89.8861 13.1667 91.0928 12.86 92.4261 12.86C93.9861 12.86 95.3528 13.26 96.5261 14.06C97.6995 14.86 98.5195 15.9667 98.9861 17.38H95.7661C95.4461 16.7133 94.9928 16.2133 94.4061 15.88C93.8328 15.5467 93.1661 15.38 92.4061 15.38C91.5928 15.38 90.8661 15.5733 90.2261 15.96C89.5995 16.3333 89.1061 16.8667 88.7461 17.56C88.3995 18.2533 88.2261 19.0667 88.2261 20C88.2261 20.92 88.3995 21.7333 88.7461 22.44C89.1061 23.1333 89.5995 23.6733 90.2261 24.06C90.8661 24.4333 91.5928 24.62 92.4061 24.62C93.1661 24.62 93.8328 24.4533 94.4061 24.12C94.9928 23.7733 95.4461 23.2667 95.7661 22.6H98.9861C98.5195 24.0267 97.6995 25.14 96.5261 25.94C95.3661 26.7267 93.9995 27.12 92.4261 27.12C91.0928 27.12 89.8861 26.82 88.8061 26.22C87.7395 25.6067 86.8928 24.76 86.2661 23.68C85.6528 22.6 85.3461 21.3733 85.3461 20ZM106.298 27.18C105.231 27.18 104.271 26.9467 103.418 26.48C102.564 26 101.891 25.3267 101.398 24.46C100.918 23.5933 100.678 22.5933 100.678 21.46C100.678 20.3267 100.924 19.3267 101.418 18.46C101.924 17.5933 102.611 16.9267 103.478 16.46C104.344 15.98 105.311 15.74 106.378 15.74C107.444 15.74 108.411 15.98 109.278 16.46C110.144 16.9267 110.824 17.5933 111.318 18.46C111.824 19.3267 112.078 20.3267 112.078 21.46C112.078 22.5933 111.818 23.5933 111.298 24.46C110.791 25.3267 110.098 26 109.218 26.48C108.351 26.9467 107.378 27.18 106.298 27.18ZM106.298 24.74C106.804 24.74 107.278 24.62 107.718 24.38C108.171 24.1267 108.531 23.7533 108.798 23.26C109.064 22.7667 109.198 22.1667 109.198 21.46C109.198 20.4067 108.918 19.6 108.358 19.04C107.811 18.4667 107.138 18.18 106.338 18.18C105.538 18.18 104.864 18.4667 104.318 19.04C103.784 19.6 103.518 20.4067 103.518 21.46C103.518 22.5133 103.778 23.3267 104.298 23.9C104.831 24.46 105.498 24.74 106.298 24.74ZM120.272 15.76C121.592 15.76 122.658 16.18 123.472 17.02C124.285 17.8467 124.692 19.0067 124.692 20.5V27H121.892V20.88C121.892 20 121.672 19.3267 121.232 18.86C120.792 18.38 120.192 18.14 119.432 18.14C118.658 18.14 118.045 18.38 117.592 18.86C117.152 19.3267 116.932 20 116.932 20.88V27H114.132V15.92H116.932V17.3C117.305 16.82 117.778 16.4467 118.352 16.18C118.938 15.9 119.578 15.76 120.272 15.76ZM133.494 15.76C134.814 15.76 135.881 16.18 136.694 17.02C137.508 17.8467 137.914 19.0067 137.914 20.5V27H135.114V20.88C135.114 20 134.894 19.3267 134.454 18.86C134.014 18.38 133.414 18.14 132.654 18.14C131.881 18.14 131.268 18.38 130.814 18.86C130.374 19.3267 130.154 20 130.154 20.88V27H127.354V15.92H130.154V17.3C130.528 16.82 131.001 16.4467 131.574 16.18C132.161 15.9 132.801 15.76 133.494 15.76ZM150.877 21.22C150.877 21.62 150.85 21.98 150.797 22.3H142.697C142.764 23.1 143.044 23.7267 143.537 24.18C144.03 24.6333 144.637 24.86 145.357 24.86C146.397 24.86 147.137 24.4133 147.577 23.52H150.597C150.277 24.5867 149.664 25.4667 148.757 26.16C147.85 26.84 146.737 27.18 145.417 27.18C144.35 27.18 143.39 26.9467 142.537 26.48C141.697 26 141.037 25.3267 140.557 24.46C140.09 23.5933 139.857 22.5933 139.857 21.46C139.857 20.3133 140.09 19.3067 140.557 18.44C141.024 17.5733 141.677 16.9067 142.517 16.44C143.357 15.9733 144.324 15.74 145.417 15.74C146.47 15.74 147.41 15.9667 148.237 16.42C149.077 16.8733 149.724 17.52 150.177 18.36C150.644 19.1867 150.877 20.14 150.877 21.22ZM147.977 20.42C147.964 19.7 147.704 19.1267 147.197 18.7C146.69 18.26 146.07 18.04 145.337 18.04C144.644 18.04 144.057 18.2533 143.577 18.68C143.11 19.0933 142.824 19.6733 142.717 20.42H147.977ZM152.201 21.46C152.201 20.3133 152.434 19.3133 152.901 18.46C153.367 17.5933 154.014 16.9267 154.841 16.46C155.667 15.98 156.614 15.74 157.681 15.74C159.054 15.74 160.187 16.0867 161.081 16.78C161.987 17.46 162.594 18.42 162.901 19.66H159.881C159.721 19.18 159.447 18.8067 159.061 18.54C158.687 18.26 158.221 18.12 157.661 18.12C156.861 18.12 156.227 18.4133 155.761 19C155.294 19.5733 155.061 20.3933 155.061 21.46C155.061 22.5133 155.294 23.3333 155.761 23.92C156.227 24.4933 156.861 24.78 157.661 24.78C158.794 24.78 159.534 24.2733 159.881 23.26H162.901C162.594 24.46 161.987 25.4133 161.081 26.12C160.174 26.8267 159.041 27.18 157.681 27.18C156.614 27.18 155.667 26.9467 154.841 26.48C154.014 26 153.367 25.3333 152.901 24.48C152.434 23.6133 152.201 22.6067 152.201 21.46ZM168.212 18.22V23.58C168.212 23.9533 168.299 24.2267 168.472 24.4C168.659 24.56 168.965 24.64 169.392 24.64H170.692V27H168.932C166.572 27 165.392 25.8533 165.392 23.56V18.22H164.072V15.92H165.392V13.18H168.212V15.92H170.692V18.22H168.212Z" fill="#2E232D"/>
<defs>
<linearGradient id="paint0_linear_104_16282" x1="4.5319" y1="11.0598" x2="4.5319" y2="34.6223" gradientUnits="userSpaceOnUse">
<stop stop-color="#FFB55F"/>
<stop offset="1" stop-color="#F2497F"/>
</linearGradient>
<linearGradient id="paint1_linear_104_16282" x1="11.8653" y1="18.7712" x2="19.8811" y2="11.1613" gradientUnits="userSpaceOnUse">
<stop stop-color="#6D069D"/>
<stop offset="1" stop-color="#D85AE5"/>
</linearGradient>
<linearGradient id="paint2_linear_104_16282" x1="20.3567" y1="6.69675" x2="29.6218" y2="18.1624" gradientUnits="userSpaceOnUse">
<stop stop-color="#D85AE5"/>
<stop offset="1" stop-color="#3D0972"/>
</linearGradient>
<linearGradient id="paint3_linear_104_16282" x1="19.4745" y1="12.1759" x2="19.4745" y2="40" gradientUnits="userSpaceOnUse">
<stop stop-color="#FFB55F"/>
<stop offset="1" stop-color="#F2497F"/>
</linearGradient>
<linearGradient id="paint4_linear_104_16282" x1="14.5033" y1="0" x2="14.5033" y2="6.69676" gradientUnits="userSpaceOnUse">
<stop stop-color="#F2497F"/>
<stop offset="1" stop-color="#6D069D"/>
</linearGradient>
</defs>
</svg>
